<?xml version="1.0" encoding="utf-8"?>
<!-- Generator: Adobe Illustrator 26.1.0, SVG Export Plug-In . SVG Version: 6.00 Build 0)  -->
<svg version="1.1" id="Layer_1" shape-rendering="crispEdges"
	 xmlns="http://www.w3.org/2000/svg" xmlns:xlink="http://www.w3.org/1999/xlink" x="0px" y="0px" viewBox="0 0 11 10"
	 style="enable-background:new 0 0 11 10;" xml:space="preserve">
<style type="text/css">
	.st0{fill:url(#SVGID_1_);}
</style>
<linearGradient id="SVGID_1_" gradientUnits="userSpaceOnUse" x1="1.25" y1="9.25" x2="10.75" y2="-0.25">
	<stop  offset="0" style="stop-color:#BD2626"/>
	<stop  offset="1" style="stop-color:#FF9C55"/>
</linearGradient>
<path class="st0" d="M0,0h1v1H0V0z M2,0h1v1H2V0z M8,0h1v1H8V0z M10,0h1v1h-1V0z M1,1h1v1H1V1z M9,1h1v1H9V1z M0,2h1v1H0V2z M2,2h1
	v1H2V2z M8,2h1v1H8V2z M10,2h1v1h-1V2z M3,4h1v1H3V4z M6,4h1v1H6V4z M5,6h1V5H5H4v1H5z M7,7H6H5H4H3H2v1h1h1h1h1h1h1V7H7z M1,8h1v1
	H1V8z M9,8H8v1h1h1V8H9z M10,9h1v1h-1V9z"/>
</svg>
